<svg>
    <defs>
        <g>
            <svg id="burger" width="40" height="26" viewBox="0 0 40 26" fill="none" xmlns="http://www.w3.org/2000/svg">
                <path d="M0 1H40" stroke="black" stroke-width="2" stroke-miterlimit="10"/>
                <path d="M0 13H40" stroke="black" stroke-width="2" stroke-miterlimit="10"/>
                <path d="M0 25H40" stroke="black" stroke-width="2" stroke-miterlimit="10"/>
            </svg>
        </g>
        <g>
            <svg id="cart" viewBox="0 0 35 35" xmlns="http://www.w3.org/2000/svg">
                <g clip-path="url(#clip0_328_32195)">
                    <path d="M33.3594 11.2109H20.7812C20.4792 11.2109 20.2344 11.4558 20.2344 11.7578C20.2344 12.0598 20.4792 12.3047 20.7812 12.3047H33.3594C33.6609 12.3047 33.9062 12.55 33.9062 12.8516V15.5859H32.2657C31.9637 15.5859 31.7188 15.8308 31.7188 16.1328C31.7188 16.4348 31.9637 16.6797 32.2657 16.6797H32.9733L31.8295 32.6174C31.7886 33.1868 31.3095 33.6328 30.7385 33.6328H4.26146C3.69052 33.6328 3.21139 33.1868 3.17051 32.6174L2.02665 16.6797H30.0781C30.3801 16.6797 30.6249 16.4348 30.6249 16.1328C30.6249 15.8308 30.3801 15.5859 30.0781 15.5859H1.09375V12.8516C1.09375 12.55 1.33909 12.3047 1.64062 12.3047H14.2188C14.5208 12.3047 14.7657 12.0598 14.7657 11.7578C14.7657 11.4558 14.5208 11.2109 14.2188 11.2109H1.64062C0.736025 11.2109 0 11.947 0 12.8516V15.5859C0 16.1329 0.404072 16.5861 0.929141 16.6659L2.07963 32.6956C2.16132 33.8345 3.11972 34.7266 4.26146 34.7266H30.7385C31.8803 34.7266 32.8387 33.8345 32.9204 32.6956L34.0709 16.6659C34.5959 16.5861 35 16.1329 35 15.5859V12.8516C35 11.947 34.264 11.2109 33.3594 11.2109Z"/>
                    <path d="M17.5 14.4922C18.4046 14.4922 19.1406 13.7562 19.1406 12.8516V1.91406C19.1406 1.00946 18.4046 0.273438 17.5 0.273438C16.5954 0.273438 15.8594 1.00946 15.8594 1.91406V12.8516C15.8594 13.7562 16.5954 14.4922 17.5 14.4922ZM16.9531 1.91406C16.9531 1.61253 17.1985 1.36719 17.5 1.36719C17.8015 1.36719 18.0469 1.61253 18.0469 1.91406V12.8516C18.0469 13.1531 17.8015 13.3984 17.5 13.3984C17.1985 13.3984 16.9531 13.1531 16.9531 12.8516V1.91406Z"/>
                    <path d="M16.9531 19.4141V30.8984C16.9531 31.2004 17.198 31.4453 17.5 31.4453C17.802 31.4453 18.0469 31.2004 18.0469 30.8984V19.4141C18.0469 19.1121 17.802 18.8672 17.5 18.8672C17.198 18.8672 16.9531 19.1121 16.9531 19.4141Z"/>
                    <path d="M22.4219 19.4141V30.8984C22.4219 31.2004 22.6667 31.4453 22.9688 31.4453C23.2708 31.4453 23.5156 31.2004 23.5156 30.8984V19.4141C23.5156 19.1121 23.2708 18.8672 22.9688 18.8672C22.6667 18.8672 22.4219 19.1121 22.4219 19.4141Z"/>
                    <path d="M27.8906 19.4141V30.8984C27.8906 31.2004 28.1355 31.4453 28.4375 31.4453C28.7395 31.4453 28.9844 31.2004 28.9844 30.8984V19.4141C28.9844 19.1121 28.7395 18.8672 28.4375 18.8672C28.1355 18.8672 27.8906 19.1121 27.8906 19.4141Z"/>
                    <path d="M6.01562 19.4141V30.8984C6.01562 31.2004 6.26049 31.4453 6.5625 31.4453C6.86451 31.4453 7.10938 31.2004 7.10938 30.8984V19.4141C7.10938 19.1121 6.86451 18.8672 6.5625 18.8672C6.26049 18.8672 6.01562 19.1121 6.01562 19.4141Z"/>
                    <path d="M11.4844 19.4141V30.8984C11.4844 31.2004 11.7292 31.4453 12.0312 31.4453C12.3333 31.4453 12.5781 31.2004 12.5781 30.8984V19.4141C12.5781 19.1121 12.3333 18.8672 12.0312 18.8672C11.7292 18.8672 11.4844 19.1121 11.4844 19.4141Z"/>
                </g>
                <defs>
                    <clipPath id="clip0_328_32195">
                        <rect width="35" height="35" fill="white"/>
                    </clipPath>
                </defs>
            </svg>
        </g>
        <g>
            <svg id="hearth" width="30" height="30" viewBox="0 0 32 32" version="1.1"
                 xmlns="http://www.w3.org/2000/svg">

                <g id="SVGRepo_bgCarrier" stroke-width="0"/>

                <g id="SVGRepo_tracerCarrier" stroke-linecap="round" stroke-linejoin="round"/>

                <g id="SVGRepo_iconCarrier">
                    <title>heart</title>
                    <path d="M16.042 8.345c0 0-2-4.262-6.5-4.262-4.917 0-7.5 4.167-7.5 8.333 0 6.917 14 15.5 14 15.5s13.916-8.5 13.916-15.5c0-4.25-2.666-8.333-7.416-8.333s-6.5 4.262-6.5 4.262z"/>
                </g>

            </svg>
        </g>
        <g>
            <svg id="instagram" width="30" height="30" viewBox="0 0 36 36" fill="none"
                 xmlns="http://www.w3.org/2000/svg">
                <path d="M24.75 32.0625H11.25C9.3106 32.0625 7.45064 31.2921 6.07928 29.9207C4.70792 28.5494 3.9375 26.6894 3.9375 24.75V11.25C3.9375 9.3106 4.70792 7.45064 6.07928 6.07928C7.45064 4.70792 9.3106 3.9375 11.25 3.9375H24.75C26.6894 3.9375 28.5494 4.70792 29.9207 6.07928C31.2921 7.45064 32.0625 9.3106 32.0625 11.25V24.75C32.0625 26.6894 31.2921 28.5494 29.9207 29.9207C28.5494 31.2921 26.6894 32.0625 24.75 32.0625ZM11.25 5.0625C9.60897 5.0625 8.03516 5.7144 6.87478 6.87478C5.7144 8.03516 5.0625 9.60897 5.0625 11.25V24.75C5.0625 26.391 5.7144 27.9648 6.87478 29.1252C8.03516 30.2856 9.60897 30.9375 11.25 30.9375H24.75C26.391 30.9375 27.9648 30.2856 29.1252 29.1252C30.2856 27.9648 30.9375 26.391 30.9375 24.75V11.25C30.9375 9.60897 30.2856 8.03516 29.1252 6.87478C27.9648 5.7144 26.391 5.0625 24.75 5.0625H11.25Z"
                      fill="black"/>
                <path d="M17.9999 24.5644C16.7016 24.5644 15.4325 24.1794 14.353 23.4581C13.2734 22.7368 12.4321 21.7116 11.9352 20.5121C11.4384 19.3126 11.3084 17.9928 11.5617 16.7194C11.815 15.446 12.4402 14.2764 13.3582 13.3583C14.2763 12.4403 15.4459 11.8151 16.7193 11.5618C17.9926 11.3085 19.3125 11.4385 20.512 11.9354C21.7115 12.4322 22.7367 13.2736 23.458 14.3531C24.1793 15.4326 24.5643 16.7017 24.5643 18C24.5628 19.7406 23.8707 21.4094 22.64 22.6401C21.4093 23.8709 19.7404 24.5629 17.9999 24.5644ZM17.9999 12.5663C16.9239 12.5663 15.872 12.8855 14.9774 13.4834C14.0828 14.0813 13.3856 14.9312 12.9741 15.9254C12.5625 16.9197 12.4551 18.0136 12.6655 19.0689C12.8758 20.1242 13.3944 21.0934 14.1557 21.8539C14.917 22.6144 15.8867 23.132 16.9422 23.3412C17.9977 23.5505 19.0916 23.4419 20.0854 23.0294C21.0792 22.6168 21.9283 21.9188 22.5253 21.0235C23.1223 20.1283 23.4404 19.0761 23.4393 18C23.4378 16.5579 22.8643 15.1752 21.8445 14.1555C20.8247 13.1357 19.4421 12.5622 17.9999 12.5607V12.5663Z"
                      fill="black"/>
                <path d="M25.0313 11.8125C24.6419 11.8125 24.2612 11.697 23.9375 11.4807C23.6137 11.2644 23.3614 10.9569 23.2124 10.5972C23.0634 10.2374 23.0244 9.84157 23.1003 9.45967C23.1763 9.07777 23.3638 8.72697 23.6391 8.45163C23.9145 8.1763 24.2653 7.98879 24.6472 7.91283C25.0291 7.83687 25.4249 7.87585 25.7847 8.02486C26.1444 8.17387 26.4519 8.42621 26.6682 8.74997C26.8845 9.07373 27 9.45437 27 9.84375C27 10.3659 26.7926 10.8667 26.4234 11.2359C26.0542 11.6051 25.5534 11.8125 25.0313 11.8125ZM25.0313 9C24.8644 9 24.7012 9.04949 24.5625 9.1422C24.4237 9.23491 24.3156 9.36669 24.2517 9.52086C24.1879 9.67504 24.1712 9.84469 24.2037 10.0084C24.2363 10.172 24.3166 10.3224 24.4346 10.4404C24.5526 10.5584 24.703 10.6387 24.8666 10.6713C25.0303 10.7038 25.2 10.6871 25.3541 10.6233C25.5083 10.5594 25.6401 10.4513 25.7328 10.3125C25.8255 10.1738 25.875 10.0106 25.875 9.84375C25.875 9.61997 25.7861 9.40536 25.6279 9.24713C25.4696 9.0889 25.255 9 25.0313 9Z"
                      fill="black"/>
            </svg>
        </g>
        <g>
            <svg id="profile" viewBox="0 0 39 39" fill="none" xmlns="http://www.w3.org/2000/svg">
                <path d="M19.5 24.375C23.5386 24.375 26.8125 20.0098 26.8125 14.625C26.8125 9.24022 23.5386 4.875 19.5 4.875C15.4614 4.875 12.1875 9.24022 12.1875 14.625C12.1875 20.0098 15.4614 24.375 19.5 24.375Z"
                      stroke="black"/>
                <path d="M13.4061 20.3896C13.4061 20.3896 7.25755 22.0228 6.09364 25.2646C5.02744 28.0892 4.61088 31.1175 4.87489 34.125H34.1249C34.4005 31.1202 33.9965 28.092 32.9427 25.2646C31.7666 22.0228 25.6302 20.3896 25.6302 20.3896"
                      stroke="black"/>
            </svg>
        </g>
        <g>
            <svg id="phone" viewBox="0 0 35 35" fill="none" xmlns="http://www.w3.org/2000/svg">
                <g clip-path="url(#clip0_328_18559)">
                    <path d="M34.4341 8.93384L34.2918 8.59259C33.5641 6.84622 32.0364 5.52025 30.2078 5.04639C30.1319 5.02636 30.0561 5.00715 29.9809 4.98835C29.0419 4.75087 28.051 4.53868 27.0355 4.35767C26.7128 4.30011 26.4033 4.51537 26.3457 4.83871C26.2882 5.16205 26.5035 5.47083 26.8268 5.52846C27.8146 5.70455 28.7776 5.91079 29.6909 6.14171C29.7625 6.15962 29.8332 6.17746 29.9067 6.19687C31.3799 6.57873 32.6089 7.64534 33.1943 9.05012L33.3365 9.39137C33.5161 9.82237 33.6436 10.2683 33.7212 10.7206L25.7146 9.04821L25.4675 7.58491C25.4291 7.35707 25.262 7.17215 25.0394 7.1107C22.9618 6.53751 20.2844 6.22176 17.5007 6.22176C14.7161 6.22176 12.0388 6.53744 9.96195 7.1107C9.73917 7.17215 9.57224 7.35713 9.53382 7.58491L9.28656 9.04793L7.23579 9.47627C6.91429 9.5434 6.70812 9.8584 6.77525 10.1799C6.83383 10.4604 7.08102 10.6531 7.35671 10.6531C7.39698 10.6531 7.43792 10.649 7.47887 10.6404L9.07369 10.3072L8.81126 11.8595L1.39729 13.3427C1.27561 12.8862 1.20876 12.42 1.19399 11.9531L5.12807 11.1313C5.44956 11.0642 5.65573 10.7492 5.5886 10.4277C5.52147 10.1063 5.20647 9.90024 4.88498 9.96723L1.27958 10.7203C1.3573 10.2681 1.48466 9.82231 1.66417 9.39137L1.80635 9.05012C2.39144 7.64527 3.62027 6.57866 5.09635 6.19605C5.16443 6.17807 5.23348 6.16078 5.30252 6.14348C5.30307 6.14342 5.31113 6.14137 5.31161 6.14116C11.0394 4.69263 18.0517 4.34229 24.5506 5.17989C24.8771 5.222 25.1744 4.9919 25.2164 4.6661C25.2584 4.34037 25.0283 4.04233 24.7027 4.00035C18.0612 3.14443 10.8871 3.50441 5.01384 4.98972C4.9396 5.00824 4.8655 5.02684 4.79509 5.04543C2.96361 5.52012 1.43598 6.84622 0.708573 8.59259L0.566317 8.93384C-0.137988 10.6246 -0.18666 12.5057 0.429189 14.2307C0.528446 14.5085 0.816034 14.6718 1.10601 14.6138L9.4457 12.9454C9.68742 12.897 9.87425 12.7045 9.9154 12.4614L10.6424 8.1607C12.5649 7.67603 14.9816 7.41073 17.5005 7.41073C20.0186 7.41073 22.4353 7.6761 24.3585 8.16077L25.0847 12.4612C25.1258 12.7044 25.3126 12.897 25.5545 12.9454L32.8089 14.3963C32.8192 14.3989 32.8296 14.4013 32.84 14.4033L33.8946 14.6139C33.9337 14.6217 33.9728 14.6255 34.0113 14.6255C34.2583 14.6255 34.4852 14.4711 34.571 14.2308C35.1873 12.506 35.1386 10.6248 34.4341 8.93384ZM33.6028 13.343L33.1037 13.2434C33.0936 13.2408 33.0833 13.2385 33.0729 13.2364L26.1891 11.8597L25.927 10.3074L33.8065 11.9533C33.7916 12.4202 33.7247 12.8864 33.6028 13.343Z"
                          fill="black"/>
                    <path d="M32.0457 30.8086L31.7783 27.778C31.7511 27.471 31.4941 27.2357 31.1859 27.2357H30.3802L29.9332 23.8628C29.8902 23.5373 29.5916 23.3082 29.2656 23.3514C28.9401 23.3946 28.7111 23.6934 28.7543 24.019L29.1805 27.2357H5.81979L7.25308 16.4144C7.30845 15.9966 7.62256 15.6568 8.03457 15.5686L10.31 15.0823C11.193 14.8936 11.8783 14.1671 12.0155 13.2746L12.2132 11.9877C12.2886 11.4968 12.7038 11.1404 13.2005 11.1404H21.7994C22.2961 11.1404 22.7115 11.4969 22.7868 11.9879L22.9841 13.2742C23.121 14.1668 23.8063 14.8935 24.6897 15.0823L26.9648 15.5686C27.3769 15.6568 27.691 15.9966 27.7464 16.4144L28.4939 22.0563C28.537 22.3818 28.8368 22.611 29.1615 22.5677C29.4871 22.5245 29.7161 22.2257 29.6729 21.9001L28.9253 16.2581C28.8039 15.3431 28.116 14.5987 27.2134 14.4057L24.9382 13.9194C24.535 13.8332 24.222 13.5015 24.1596 13.094L23.9622 11.8077C23.7972 10.732 22.8875 9.95123 21.7993 9.95123H21.5821V9.17303C21.5821 8.84463 21.3159 8.57837 20.9874 8.57837C20.6589 8.57837 20.3928 8.84463 20.3928 9.17303V9.95123H14.6072V9.17303C14.6072 8.84463 14.341 8.57837 14.0126 8.57837C13.6841 8.57837 13.4179 8.84463 13.4179 9.17303V9.95123H13.2005C12.1124 9.95123 11.2028 10.7318 11.0376 11.8072L10.84 13.094C10.7774 13.5015 10.4645 13.8331 10.0614 13.9193L7.78601 14.4057C6.88326 14.5987 6.19536 15.3432 6.07402 16.2583L4.62002 27.2357H3.81454C3.50638 27.2357 3.24935 27.471 3.22221 27.778L2.95472 30.8086C2.93996 30.9748 2.99587 31.1394 3.10846 31.2625C3.22112 31.3855 3.38026 31.4555 3.54699 31.4555H8.00189C8.33036 31.4555 8.59655 31.1893 8.59655 30.8609C8.59655 30.5325 8.33036 30.2662 8.00189 30.2662H4.19654L4.35909 28.4248H30.6415L30.8041 30.2662H9.9841C9.65564 30.2662 9.38945 30.5325 9.38945 30.8609C9.38945 31.1893 9.65557 31.4555 9.9841 31.4555H31.4535C31.6203 31.4555 31.7794 31.3855 31.892 31.2624C32.0047 31.1394 32.0604 30.9747 32.0457 30.8086Z"
                          fill="black"/>
                    <path d="M17.5002 13.6848C14.1897 13.6848 11.4963 16.3781 11.4963 19.6887C11.4963 22.9992 14.1897 25.6925 17.5002 25.6925C20.8107 25.6925 23.504 22.9992 23.504 19.6887C23.504 16.3782 20.8107 13.6848 17.5002 13.6848ZM17.5002 24.5032C14.8455 24.5032 12.6856 22.3434 12.6856 19.6887C12.6856 17.0339 14.8454 14.8741 17.5002 14.8741C20.155 14.8741 22.3148 17.0339 22.3148 19.6887C22.3147 22.3435 20.1549 24.5032 17.5002 24.5032Z"
                          fill="black"/>
                    <path d="M17.5002 17.4982C16.2924 17.4982 15.3098 18.4808 15.3098 19.6886C15.3098 20.8964 16.2925 21.879 17.5002 21.879C18.7081 21.879 19.6907 20.8963 19.6907 19.6886C19.6907 18.4808 18.708 17.4982 17.5002 17.4982ZM17.5002 20.6898C16.9482 20.6898 16.4991 20.2407 16.4991 19.6887C16.4991 19.1367 16.9482 18.6875 17.5002 18.6875C18.0523 18.6875 18.5014 19.1366 18.5014 19.6887C18.5014 20.2407 18.0523 20.6898 17.5002 20.6898Z"
                          fill="black"/>
                </g>
                <defs>
                    <clipPath id="clip0_328_18559">
                        <rect width="35" height="35" fill="white"/>
                    </clipPath>
                </defs>
            </svg>
        </g>
        <g>
            <svg id="search" viewBox="0 0 35 35" fill="none" xmlns="http://www.w3.org/2000/svg">
                <g clip-path="url(#clip0_325_1405)">
                    <path d="M12.3005 24.6069C9.01465 24.6069 5.92522 23.327 3.60148 21.0032C-1.19496 16.2068 -1.19496 8.40153 3.60148 3.6051C5.92529 1.28136 9.01472 0.00146484 12.3005 0.00146484C15.5864 0.00146484 18.676 1.28136 20.9996 3.6051C23.3239 5.92884 24.6038 9.01827 24.6038 12.3042C24.6043 15.5901 23.3245 18.6795 21.0007 21.0032C18.6765 23.327 15.5871 24.6069 12.3005 24.6069ZM12.3005 0.548272C9.16039 0.548272 6.20823 1.77156 3.98805 3.99174C-0.595378 8.5751 -0.595378 16.0333 3.98805 20.6167C6.20823 22.8368 9.16039 24.0601 12.3005 24.0601C15.4407 24.0601 18.3934 22.8368 20.6141 20.6167C22.8343 18.396 24.0575 15.4443 24.057 12.3042C24.057 9.16401 22.8336 6.21185 20.6131 3.99167C18.3929 1.77156 15.4408 0.548272 12.3005 0.548272Z"
                          fill="black"/>
                    <path d="M12.3004 23.5122C9.30655 23.5122 6.49151 22.3466 4.37449 20.2301C2.25795 18.1135 1.09229 15.2991 1.09229 12.3047C1.09283 9.31027 2.2585 6.49584 4.37559 4.3793C6.49213 2.26214 9.3071 1.09607 12.3014 1.09607C15.2953 1.09607 18.1097 2.26166 20.2263 4.37828C24.5956 8.74863 24.5956 15.8592 20.2274 20.2301C18.1097 22.3466 15.2948 23.5122 12.3004 23.5122ZM12.3014 1.64281C9.45284 1.64281 6.77568 2.75187 4.76216 4.76587C2.74863 6.7794 1.63964 9.45663 1.63909 12.3047C1.63909 15.1527 2.74754 17.83 4.76106 19.8434C6.77459 21.8564 9.45229 22.9655 12.3004 22.9655C15.1485 22.9655 17.8267 21.8564 19.8408 19.8434C23.996 15.6861 23.9954 8.92158 19.8397 4.76478C17.8267 2.75187 15.1496 1.64281 12.3014 1.64281Z"
                          fill="black"/>
                    <path d="M3.55225 12.5787C3.40117 12.5787 3.27881 12.4564 3.27881 12.3053C3.27881 7.33104 7.32616 3.28369 12.3004 3.28369C12.4515 3.28369 12.5738 3.40599 12.5738 3.55706C12.5739 3.59297 12.5668 3.62853 12.5531 3.66171C12.5393 3.69489 12.5192 3.72504 12.4938 3.75043C12.4684 3.77582 12.4382 3.79595 12.4051 3.80968C12.3719 3.8234 12.3363 3.83046 12.3004 3.83043C7.62735 3.83043 3.82562 7.63217 3.82562 12.3053C3.82563 12.3412 3.81857 12.3767 3.80484 12.4099C3.79111 12.4431 3.77098 12.4732 3.74559 12.4986C3.7202 12.524 3.69006 12.5441 3.65688 12.5579C3.62371 12.5716 3.58815 12.5787 3.55225 12.5787ZM22.9121 25.121C22.8762 25.1211 22.8406 25.114 22.8075 25.1003C22.7743 25.0865 22.7442 25.0663 22.7188 25.0409L20.2275 22.5496C20.2021 22.5242 20.182 22.494 20.1682 22.4609C20.1545 22.4277 20.1474 22.3922 20.1475 22.3563C20.1475 22.3204 20.1545 22.2848 20.1683 22.2517C20.182 22.2185 20.2021 22.1884 20.2275 22.163C20.2529 22.1376 20.283 22.1175 20.3162 22.1038C20.3494 22.09 20.3849 22.083 20.4208 22.083C20.4567 22.083 20.4922 22.0901 20.5254 22.1038C20.5586 22.1175 20.5887 22.1377 20.6141 22.163L23.1054 24.6544C23.1437 24.6926 23.1698 24.7413 23.1804 24.7944C23.1909 24.8474 23.1855 24.9024 23.1648 24.9524C23.1441 25.0023 23.1091 25.045 23.0641 25.0751C23.0191 25.1051 22.9662 25.1211 22.9121 25.121ZM24.845 23.1893C24.8091 23.1893 24.7735 23.1822 24.7403 23.1685C24.7072 23.1547 24.6771 23.1346 24.6517 23.1091L22.1604 20.6167C22.1091 20.5654 22.0803 20.4959 22.0803 20.4234C22.0803 20.3509 22.1091 20.2814 22.1604 20.2302C22.2116 20.1789 22.2812 20.1501 22.3537 20.1501C22.4262 20.1501 22.4957 20.1789 22.5469 20.2302L25.0383 22.7226C25.0766 22.7608 25.1026 22.8096 25.1132 22.8626C25.1238 22.9156 25.1184 22.9706 25.0977 23.0206C25.077 23.0706 25.0419 23.1133 24.9969 23.1433C24.9519 23.1733 24.899 23.1893 24.845 23.1893Z"
                          fill="black"/>
                    <path d="M22.5257 25.5086C22.4716 25.5086 22.4187 25.4926 22.3737 25.4626C22.3288 25.4326 22.2937 25.3899 22.273 25.3399C22.2523 25.2899 22.2469 25.2349 22.2575 25.1819C22.268 25.1288 22.2941 25.0801 22.3324 25.0419L25.0385 22.3359C25.0897 22.2846 25.1592 22.2559 25.2317 22.2559C25.3042 22.2559 25.3737 22.2847 25.425 22.3359C25.4762 22.3872 25.505 22.4567 25.505 22.5292C25.505 22.6017 25.4762 22.6712 25.425 22.7225L22.719 25.4285C22.6936 25.4539 22.6635 25.4741 22.6303 25.4878C22.5972 25.5016 22.5616 25.5086 22.5257 25.5086Z"
                          fill="black"/>
                    <path d="M34.1251 31.6955C34.0892 31.6955 34.0536 31.6884 34.0204 31.6747C33.9872 31.6609 33.9571 31.6408 33.9317 31.6153L25.0383 22.7225C24.9871 22.6712 24.9583 22.6017 24.9583 22.5292C24.9583 22.4567 24.987 22.3872 25.0383 22.3359C25.0896 22.2847 25.1591 22.2559 25.2316 22.2559C25.3041 22.2559 25.3736 22.2846 25.4248 22.3359L34.3183 31.2288C34.3566 31.267 34.3827 31.3157 34.3932 31.3687C34.4038 31.4218 34.3984 31.4768 34.3777 31.5267C34.357 31.5767 34.322 31.6194 34.277 31.6494C34.232 31.6795 34.1792 31.6955 34.1251 31.6955ZM31.4553 34.4367C31.4194 34.4368 31.3838 34.4297 31.3506 34.416C31.3175 34.4023 31.2873 34.3821 31.262 34.3567L22.3323 25.4285C22.3069 25.4031 22.2867 25.373 22.273 25.3398C22.2593 25.3066 22.2522 25.2711 22.2522 25.2352C22.2522 25.1993 22.2593 25.1637 22.273 25.1306C22.2867 25.0974 22.3069 25.0673 22.3323 25.0419C22.3576 25.0165 22.3878 24.9964 22.4209 24.9826C22.4541 24.9689 22.4896 24.9618 22.5255 24.9618C22.5614 24.9618 22.597 24.9689 22.6301 24.9826C22.6633 24.9964 22.6934 25.0165 22.7188 25.0419L31.6485 33.97C31.6868 34.0083 31.7129 34.057 31.7235 34.11C31.734 34.163 31.7286 34.218 31.7079 34.268C31.6872 34.318 31.6522 34.3607 31.6072 34.3907C31.5623 34.4207 31.5094 34.4368 31.4553 34.4367Z"
                          fill="black"/>
                    <path d="M32.8094 34.9985C32.2247 34.9985 31.6752 34.7705 31.2619 34.3567C31.2366 34.3313 31.2164 34.3012 31.2027 34.268C31.189 34.2349 31.1819 34.1993 31.1819 34.1634C31.1819 34.1275 31.189 34.092 31.2027 34.0588C31.2164 34.0257 31.2366 33.9955 31.2619 33.9701C31.2873 33.9448 31.3175 33.9246 31.3506 33.9109C31.3838 33.8972 31.4193 33.8901 31.4552 33.8901C31.4911 33.8901 31.5267 33.8972 31.5598 33.9109C31.593 33.9246 31.6231 33.9448 31.6485 33.9701C31.9587 34.2809 32.3709 34.4517 32.8093 34.4517H32.8104C33.2482 34.4512 33.6588 34.2809 33.9675 33.9712C34.2782 33.661 34.4491 33.2493 34.4491 32.8115C34.4491 32.3731 34.2782 31.9609 33.968 31.6507C33.9426 31.6253 33.9225 31.5952 33.9088 31.562C33.895 31.5289 33.888 31.4933 33.888 31.4574C33.888 31.4215 33.895 31.386 33.9088 31.3528C33.9225 31.3197 33.9426 31.2895 33.968 31.2641C33.9934 31.2388 34.0235 31.2186 34.0567 31.2049C34.0899 31.1912 34.1254 31.1841 34.1613 31.1841C34.1972 31.1841 34.2327 31.1912 34.2659 31.2049C34.2991 31.2186 34.3292 31.2388 34.3546 31.2641C34.7684 31.678 34.9959 32.2274 34.9959 32.8115C34.9959 33.3957 34.7684 33.9446 34.3546 34.3579C33.9429 34.7706 33.3946 34.9981 32.8104 34.9986L32.8094 34.9985Z"
                          fill="black"/>
                </g>
                <defs>
                    <clipPath id="clip0_325_1405">
                        <rect width="35" height="35" fill="white"/>
                    </clipPath>
                </defs>
            </svg>
        </g>
        <g>
            <svg id="telegram" width="30" height="30" viewBox="0 0 35 35" fill="none"
                 xmlns="http://www.w3.org/2000/svg">
                <g clip-path="url(#clip0_325_13275)">
                    <path d="M29.8743 5.12565C26.569 1.82027 22.1743 0 17.5 0C12.8257 0 8.43097 1.82027 5.12565 5.12565C1.82027 8.43097 0 12.8257 0 17.5C0 22.1743 1.82027 26.569 5.12565 29.8743C8.43097 33.1797 12.8257 35 17.5 35C22.1743 35 26.569 33.1797 29.8743 29.8743C33.1797 26.569 35 22.1743 35 17.5C35 12.8257 33.1797 8.43097 29.8743 5.12565ZM17.5 33.8948C8.45988 33.8948 1.10523 26.5401 1.10523 17.5C1.10523 8.45988 8.45988 1.10523 17.5 1.10523C26.5401 1.10523 33.8948 8.45988 33.8948 17.5C33.8948 26.5401 26.5401 33.8948 17.5 33.8948Z"
                          fill="black"/>
                    <path d="M27.4113 6.74276C27.2416 6.61493 27.0137 6.59579 26.825 6.6934L5.45653 17.746C5.27182 17.8415 5.15636 18.0327 5.15773 18.2407C5.15909 18.4486 5.27715 18.6382 5.46323 18.7312L11.0526 21.5257V27.0633C11.0526 27.2082 11.1018 27.3516 11.2016 27.4568C11.3119 27.5732 11.4585 27.6316 11.6052 27.6316C11.6977 27.6316 11.7901 27.6085 11.8737 27.562L18.2683 24.0095L23.1626 26.107C23.2667 26.1516 23.382 26.1701 23.4934 26.1493C23.7228 26.1064 23.8933 25.9308 23.9367 25.7137L25.1751 19.5219C25.2434 19.1799 24.9819 18.8609 24.6331 18.8609C24.3697 18.8608 24.1429 19.0467 24.0912 19.305L22.9864 24.8289L18.4545 22.8867C18.2975 22.8194 18.118 22.8286 17.9684 22.9115L12.1579 26.1397V21.1842C12.1579 20.9748 12.0396 20.7836 11.8524 20.6898L6.92947 18.2284L26.3114 8.20326L24.6294 16.613C24.5611 16.955 24.8226 17.2741 25.1714 17.2741C25.4348 17.2741 25.6616 17.0881 25.7133 16.8298L27.6208 7.29251C27.6624 7.08428 27.581 6.87052 27.4113 6.74276Z"
                          fill="black"/>
                    <path d="M23.8284 11.2627C23.6547 11.0429 23.3438 10.9876 23.1051 11.1347L13.5262 17.0295C13.3627 17.13 13.2632 17.3082 13.2632 17.5001V23.3949C13.2631 23.6512 13.4393 23.8738 13.6887 23.9327C13.7312 23.9428 13.7738 23.9476 13.8159 23.9476C14.0214 23.9476 14.2149 23.8324 14.31 23.6421L16.4804 19.3012L23.7855 11.9962C23.9836 11.7979 24.0021 11.4827 23.8284 11.2627ZM15.6355 18.583C15.5936 18.625 15.5586 18.6735 15.532 18.7266L14.3684 21.0538V17.8089L19.6756 14.5429L15.6355 18.583Z"
                          fill="black"/>
                </g>
                <defs>
                    <clipPath id="clip0_325_13275">
                        <rect width="35" height="35" fill="white"/>
                    </clipPath>
                </defs>
            </svg>
        </g>
        <g>
            <svg id="trash" width="28" height="30" viewBox="0 0 28 30" xmlns="http://www.w3.org/2000/svg">
                <path d="M27.3289 2.73108H19.6279V0H8.37196V2.73108H0.670898V9.61769H3.78099V29.9999H24.2188V9.61769H27.3289V2.73108H27.3289ZM9.26058 0.888619H18.7393V2.73116H9.26058V0.888619ZM23.3302 29.1114H4.66961V9.61777H23.3302V29.1114ZM26.4403 8.72915H24.2188H3.78099H1.55952V3.6197H8.37196H19.6279H26.4403V8.72915Z"
                />
            </svg>
        </g>
        <g>
            <svg id="pencil" width="30" height="30" viewBox="0 0 30 30" xmlns="http://www.w3.org/2000/svg">
                <path d="M0.184251 29.8101C0.101621 29.7279 0.0436177 29.6243 0.0167863 29.5109C-0.0100452 29.3975 -0.00462328 29.2788 0.032423 29.1684L3.1367 21.1071C3.16781 21.015 3.21953 20.9312 3.28792 20.8621L23.2508 0.914822C23.8404 0.328876 24.6379 0 25.4691 0C26.3003 0 27.0978 0.328876 27.6873 0.914822L29.0814 2.322C29.6687 2.91084 29.9985 3.70857 29.9985 4.54024C29.9985 5.37191 29.6687 6.16964 29.0814 6.75849L26.0058 9.83215C25.9965 9.84277 25.9871 9.8534 25.9765 9.8634C25.9658 9.87339 25.9552 9.88402 25.9446 9.89339L24.2387 11.598C24.2275 11.6117 24.2154 11.6249 24.2025 11.6374C24.1896 11.6499 24.1762 11.6619 24.1625 11.6736L9.12095 26.7058C9.05196 26.7743 8.96816 26.826 8.87601 26.857L0.824726 29.9619C0.714114 29.9987 0.595445 30.004 0.481996 29.9772C0.368548 29.9504 0.264808 29.8925 0.182382 29.8101H0.184251ZM1.62143 28.3729L4.28956 27.3163L2.67243 25.7154L1.62143 28.3729ZM4.93004 27.0607L8.34175 25.7098L22.8747 11.1875L18.8169 7.11966L4.28457 21.6413L2.92549 25.078L4.93004 27.0607ZM23.757 10.3039L24.6443 9.41725L20.5871 5.34881L19.6998 6.23548L23.757 10.3039ZM25.5322 8.53058L28.1941 5.87119C28.5466 5.51769 28.7445 5.03884 28.7445 4.53962C28.7445 4.04041 28.5466 3.56155 28.1941 3.20805L26.8007 1.8015C26.441 1.46136 25.9647 1.27184 25.4697 1.27184C24.9747 1.27184 24.4984 1.46136 24.1388 1.8015L21.4756 4.46276L25.5322 8.53058ZM19.1587 17.8997L27.2818 9.77655L27.7236 10.2177L19.6004 18.3408L19.1587 17.8997Z"
                />
            </svg>
        </g>
        <g>
            <svg id="vk" width="30" height="30" viewBox="0 0 35 35" fill="none" xmlns="http://www.w3.org/2000/svg">
                <path d="M17.5 0C7.83535 0 0 7.83499 0 17.5C0 27.165 7.83535 35 17.5 35C27.1647 35 35 27.165 35 17.5C35 7.83499 27.1647 0 17.5 0ZM26.3769 19.3927C27.1926 20.1894 28.0555 20.9391 28.7877 21.8182C29.1121 22.207 29.4179 22.6091 29.6506 23.0613C29.9829 23.7062 29.6829 24.4134 29.1057 24.4517L25.5205 24.4509C24.5945 24.5276 23.8576 24.1541 23.2364 23.5211C22.7405 23.0166 22.2804 22.4777 21.8028 21.956C21.6076 21.7419 21.4021 21.5403 21.1572 21.3817C20.6684 21.0637 20.2438 21.1611 19.9638 21.6717C19.6784 22.1913 19.6132 22.767 19.586 23.3453C19.547 24.1906 19.2921 24.4116 18.4438 24.4513C16.6314 24.5362 14.9116 24.2612 13.3132 23.3474C11.9032 22.5414 10.8119 21.4039 9.86087 20.116C8.009 17.6053 6.59074 14.8497 5.31642 12.0149C5.02962 11.3765 5.23944 11.0349 5.94373 11.0217C7.11386 10.9991 8.28399 11.002 9.45412 11.0206C9.93033 11.0281 10.2454 11.3006 10.4284 11.75C11.0607 13.3057 11.8359 14.7859 12.8073 16.1587C13.0662 16.5243 13.3304 16.8888 13.7068 17.147C14.1221 17.432 14.4386 17.3378 14.6345 16.8741C14.7598 16.5794 14.8139 16.2643 14.8411 15.9485C14.9342 14.8669 14.9453 13.7855 14.7841 12.7081C14.6839 12.0339 14.3047 11.5985 13.6326 11.471C13.2903 11.4062 13.3405 11.2795 13.507 11.084C13.7959 10.746 14.0666 10.5369 14.6076 10.5369L18.6583 10.5362C19.2967 10.6615 19.4399 10.9479 19.5266 11.591L19.5302 16.0925C19.5227 16.3413 19.6551 17.0789 20.102 17.2418C20.4601 17.36 20.6964 17.0728 20.9105 16.8462C21.8819 15.8153 22.574 14.5987 23.1938 13.3394C23.4674 12.784 23.7033 12.2094 23.9325 11.6336C24.1029 11.2079 24.3679 10.9984 24.8484 11.0056L28.7491 11.0102C28.864 11.0102 28.9807 11.0113 29.0946 11.031C29.752 11.1434 29.9321 11.4263 29.7287 12.0676C29.4086 13.0751 28.7866 13.9144 28.1787 14.7559C27.527 15.6567 26.832 16.5261 26.1868 17.4309C25.5939 18.258 25.6408 18.6744 26.3769 19.3927Z"
                      stroke="black"/>
            </svg>
        </g>
        <g>
            <svg id="cross" viewBox="0 0 24 24" fill="none" xmlns="http://www.w3.org/2000/svg">

                <g id="SVGRepo_bgCarrier" stroke-width="0"/>

                <g id="SVGRepo_tracerCarrier" stroke-linecap="round" stroke-linejoin="round"/>

                <g id="SVGRepo_iconCarrier">
                    <path d="M6 6L18 18" stroke="#000000" stroke-linecap="round"/>
                    <path d="M18 6L6.00001 18" stroke="#000000" stroke-linecap="round"/>
                </g>

            </svg>
        </g>
        <g>
            <svg id="filter" viewBox="0 0 64 64" xmlns="http://www.w3.org/2000/svg" stroke-width="3" stroke="#000000"
                 fill="none">

                <g id="SVGRepo_bgCarrier" stroke-width="0"/>

                <g id="SVGRepo_tracerCarrier" stroke-linecap="round" stroke-linejoin="round"/>

                <g id="SVGRepo_iconCarrier">

                    <line x1="50.69" y1="32" x2="56.32" y2="32"/>

                    <line x1="7.68" y1="32" x2="38.69" y2="32"/>

                    <line x1="26.54" y1="15.97" x2="56.32" y2="15.97"/>

                    <line x1="7.68" y1="15.97" x2="14.56" y2="15.97"/>

                    <line x1="35" y1="48.03" x2="56.32" y2="48.03"/>

                    <line x1="7.68" y1="48.03" x2="23" y2="48.03"/>

                    <circle cx="20.55" cy="15.66" r="6"/>

                    <circle cx="44.69" cy="32" r="6"/>

                    <circle cx="29" cy="48.03" r="6"/>

                </g>

            </svg>
        </g>
        <g>
            <svg id="checkmark" viewBox="0 0 1024 1024" class="icon" version="1.1" xmlns="http://www.w3.org/2000/svg"
                 fill="#000000">

                <g id="SVGRepo_bgCarrier" stroke-width="0"/>

                <g id="SVGRepo_tracerCarrier" stroke-linecap="round" stroke-linejoin="round"/>

                <g id="SVGRepo_iconCarrier">

                    <path d="M866.133333 258.133333L362.666667 761.6l-204.8-204.8L98.133333 618.666667 362.666667 881.066667l563.2-563.2z"
                          fill="#FF8800"/>

                </g>

            </svg>
        </g>
        <g>
            <svg version="1.1" id="slider-arrow" xmlns="http://www.w3.org/2000/svg"
                 xmlns:xlink="http://www.w3.org/1999/xlink" viewBox="0 0 100 100"
                 enable-background="new 0 0 100 100" xml:space="preserve">
                <g id="SVGRepo_bgCarrier" stroke-width="0"/>

                <g id="SVGRepo_tracerCarrier" stroke-linecap="round" stroke-linejoin="round"/>

                <g id="SVGRepo_iconCarrier"> <g> <path
                        d="M39.292,51.5H68c1.104,0,2-0.896,2-2s-0.896-2-2-2H39.043l8.045-7.855c0.781-0.781,0.781-1.952,0-2.733 s-2.048-0.734-2.828,0.047l-11.335,11.36c-0.375,0.375-0.586,0.896-0.586,1.426s0.211,1.045,0.586,1.42l11.336,11.337 c0.391,0.391,0.902,0.587,1.414,0.587s1.024-0.194,1.415-0.585c0.781-0.781,0.781-2.237,0-3.018L39.292,51.5z"/>
                    <path d="M84.446,49.756c0-18.448-15.009-33.457-33.457-33.457c-18.449,0-33.458,15.009-33.458,33.457 c0,18.449,15.009,33.458,33.458,33.458C69.438,83.214,84.446,68.205,84.446,49.756z M21.531,49.756 c0-16.242,13.215-29.457,29.458-29.457s29.457,13.215,29.457,29.457c0,16.243-13.214,29.458-29.457,29.458 S21.531,65.999,21.531,49.756z"/> </g> </g>

            </svg>
        </g>
        <g>
            <svg fill="#000000" height="30px" width="30px" version="1.1" id="menu" xmlns="http://www.w3.org/2000/svg" xmlns:xlink="http://www.w3.org/1999/xlink" viewBox="0 0 56 56" xml:space="preserve">
                <g id="SVGRepo_bgCarrier" stroke-width="0"/>

                <g id="SVGRepo_tracerCarrier" stroke-linecap="round" stroke-linejoin="round"/>

                <g id="SVGRepo_iconCarrier"> <g> <path d="M8,40c-4.411,0-8,3.589-8,8s3.589,8,8,8s8-3.589,8-8S12.411,40,8,40z M8,54c-3.309,0-6-2.691-6-6s2.691-6,6-6s6,2.691,6,6 S11.309,54,8,54z"/> <path d="M28,40c-4.411,0-8,3.589-8,8s3.589,8,8,8s8-3.589,8-8S32.411,40,28,40z M28,54c-3.309,0-6-2.691-6-6s2.691-6,6-6 s6,2.691,6,6S31.309,54,28,54z"/> <path d="M48,40c-4.411,0-8,3.589-8,8s3.589,8,8,8s8-3.589,8-8S52.411,40,48,40z M48,54c-3.309,0-6-2.691-6-6s2.691-6,6-6 s6,2.691,6,6S51.309,54,48,54z"/> <path d="M8,20c-4.411,0-8,3.589-8,8s3.589,8,8,8s8-3.589,8-8S12.411,20,8,20z M8,34c-3.309,0-6-2.691-6-6s2.691-6,6-6s6,2.691,6,6 S11.309,34,8,34z"/> <path d="M28,20c-4.411,0-8,3.589-8,8s3.589,8,8,8s8-3.589,8-8S32.411,20,28,20z M28,34c-3.309,0-6-2.691-6-6s2.691-6,6-6 s6,2.691,6,6S31.309,34,28,34z"/> <path d="M48,20c-4.411,0-8,3.589-8,8s3.589,8,8,8s8-3.589,8-8S52.411,20,48,20z M48,34c-3.309,0-6-2.691-6-6s2.691-6,6-6 s6,2.691,6,6S51.309,34,48,34z"/> <path d="M8,0C3.589,0,0,3.589,0,8s3.589,8,8,8s8-3.589,8-8S12.411,0,8,0z M8,14c-3.309,0-6-2.691-6-6s2.691-6,6-6s6,2.691,6,6 S11.309,14,8,14z"/> <path d="M28,0c-4.411,0-8,3.589-8,8s3.589,8,8,8s8-3.589,8-8S32.411,0,28,0z M28,14c-3.309,0-6-2.691-6-6s2.691-6,6-6s6,2.691,6,6 S31.309,14,28,14z"/> <path d="M48,16c4.411,0,8-3.589,8-8s-3.589-8-8-8s-8,3.589-8,8S43.589,16,48,16z M48,2c3.309,0,6,2.691,6,6s-2.691,6-6,6 s-6-2.691-6-6S44.691,2,48,2z"/> </g> </g>
            </svg>
        </g>
        <g>
            <svg height="30px" width="30px" version="1.1" id="house" xmlns="http://www.w3.org/2000/svg" xmlns:xlink="http://www.w3.org/1999/xlink" viewBox="0 0 512 512" xml:space="preserve">
                <g id="SVGRepo_bgCarrier" stroke-width="0"/>

                <g id="SVGRepo_tracerCarrier" stroke-linecap="round" stroke-linejoin="round"/>

                <g id="SVGRepo_iconCarrier"> <g> <g> <path d="M508.479,242.144l-245.8-212.941c-3.833-3.321-9.524-3.321-13.357,0L3.522,242.144c-3.219,2.788-4.366,7.283-2.878,11.273 c1.488,3.99,5.297,6.636,9.557,6.636h61.794v215.036c0,5.632,4.566,10.199,10.199,10.199h347.614 c5.633,0,10.199-4.567,10.199-10.199V260.053H501.8c4.258,0,8.069-2.646,9.557-6.636 C512.844,249.427,511.698,244.933,508.479,242.144z M323.528,464.162H188.475v0V290.727c0-37.234,30.293-67.527,67.527-67.527 c37.234,0,67.527,30.293,67.527,67.527V464.162z M429.808,239.654c-5.633,0-10.199,4.567-10.199,10.199v215.036h-75.683V290.727 c0-48.482-39.443-87.925-87.925-87.925s-87.925,39.443-87.925,87.925v174.162H92.393V249.853c0-5.632-4.566-10.199-10.199-10.199 H37.55L256.001,50.406l218.451,189.248H429.808z"/> </g> </g> <g> <g> <path d="M287.32,321.351c-15.446,0-28.011,12.565-28.011,28.011s12.565,28.011,28.011,28.011s28.011-12.565,28.011-28.011 S302.766,321.351,287.32,321.351z M287.32,356.974c-4.198,0-7.613-3.416-7.613-7.613s3.416-7.613,7.613-7.613 s7.613,3.416,7.613,7.613S291.518,356.974,287.32,356.974z"/> </g> </g> <g> <g> <path d="M242.346,93.543c-3.651-4.289-10.089-4.803-14.377-1.151l-4.79,4.08c-4.289,3.652-4.803,10.09-1.15,14.378 c2.017,2.368,4.884,3.586,7.769,3.586c2.339,0,4.69-0.8,6.608-2.436l4.79-4.08C245.484,104.268,245.998,97.831,242.346,93.543z"/> </g> </g> <g> <g> <path d="M212.414,119.041c-3.652-4.289-10.09-4.804-14.378-1.15L90.28,209.683c-4.288,3.652-4.803,10.09-1.149,14.378 c2.017,2.368,4.884,3.586,7.769,3.586c2.339,0,4.69-0.8,6.609-2.436l107.756-91.793 C215.552,129.766,216.068,123.329,212.414,119.041z"/> </g> </g> </g>

            </svg>
        </g>
    </defs>
</svg>
